  0
SECTION
  2
HEADER
  9
$ANGBASE
  50
0.0
  9
$ANGDIR
  70
1
  9
$MEASUREMENT
  70
1
  0
ENDSEC
  0
SECTION
  2
TABLES
  0
TABLE
  2
LTYPE
  70
4
  0
LTYPE
  5
40F
  2
CONTINUOUS
  70
0
  3
Solid line
  72
65
  73
0
  40
0.0
  0
LTYPE
  5
410
  2
DASHDOT
 70
0
  3
Dash Dot ____ _ ____ _
 72
65
 73
4
 40
2.0
 49
1.25
 49
-0.25
 49
0.25
 49
-0.25
  0
LTYPE
  5
411
  2
DASHED
 70
0
  3
Dashed __ __ __ __ __
 72
65
 73
2
 40
0.75
 49
0.5
 49
-0.25
  0
LTYPE
  5
43B
  2
DOTTED
 70
0
  3
Dotted .  .  .  .
 72
65
 73
2
 40
0.2
 49
0.0
 49
-0.2
  0
ENDTAB
  0
TABLE
  2
STYLE
  70
4
  0
STYLE
  2
KICAD
  70
0
  40
0
  41
1
  42
1
  50
0
  71
0
  3
isocp.shx
  0
STYLE
  2
KICADB
  70
0
  40
0
  41
1
  42
1
  50
0
  71
0
  3
isocp.shx
  0
STYLE
  2
KICADI
  70
0
  40
0
  41
1
  42
1
  50
15
  71
0
  3
isocp.shx
  0
STYLE
  2
KICADBI
  70
0
  40
0
  41
1
  42
1
  50
15
  71
0
  3
isocp.shx
  0
ENDTAB
  0
TABLE
  2
LAYER
  70
1
  0
LAYER
  2
BLACK
  70
0
  62
7
  6
CONTINUOUS
  0
ENDTAB
  0
ENDSEC
  0
SECTION
  2
ENTITIES
0
LINE
8
BLACK
6
CONTINUOUS
10
139.7291339999999877
20
-93.6638059999999939
11
139.7561939999999936
21
-93.6908659999999998
0
LINE
8
BLACK
6
CONTINUOUS
10
139.7561939999999936
20
-93.6908659999999998
11
139.7599999999999909
21
-93.7099999999999937
0
LINE
8
BLACK
6
CONTINUOUS
10
139.7599999999999909
20
-93.7099999999999937
11
139.7599999999999909
21
-97.4099999999999966
0
LINE
8
BLACK
6
CONTINUOUS
10
139.7599999999999909
20
-97.4099999999999966
11
139.7561939999999936
21
-97.4291339999999906
0
LINE
8
BLACK
6
CONTINUOUS
10
139.7561939999999936
20
-97.4291339999999906
11
139.7291339999999877
21
-97.4561939999999964
0
LINE
8
BLACK
6
CONTINUOUS
10
139.7291339999999877
20
-97.4561939999999964
11
139.7099999999999795
21
-97.4599999999999937
0
LINE
8
BLACK
6
CONTINUOUS
10
139.7099999999999795
20
-97.4599999999999937
11
133.710000000000008
21
-97.4599999999999937
0
LINE
8
BLACK
6
CONTINUOUS
10
133.710000000000008
20
-97.4599999999999937
11
133.6908659999999998
21
-97.4561939999999964
0
LINE
8
BLACK
6
CONTINUOUS
10
133.6908659999999998
20
-97.4561939999999964
11
133.6638059999999939
21
-97.4291339999999906
0
LINE
8
BLACK
6
CONTINUOUS
10
133.6638059999999939
20
-97.4291339999999906
11
133.6599999999999966
21
-97.4099999999999966
0
LINE
8
BLACK
6
CONTINUOUS
10
133.6599999999999966
20
-97.4099999999999966
11
133.6599999999999966
21
-93.7099999999999937
0
LINE
8
BLACK
6
CONTINUOUS
10
133.6599999999999966
20
-93.7099999999999937
11
133.6638059999999939
21
-93.6908659999999998
0
LINE
8
BLACK
6
CONTINUOUS
10
133.6638059999999939
20
-93.6908659999999998
11
133.6908659999999998
21
-93.6638059999999939
0
LINE
8
BLACK
6
CONTINUOUS
10
133.6908659999999998
20
-93.6638059999999939
11
133.710000000000008
21
-93.6599999999999966
0
LINE
8
BLACK
6
CONTINUOUS
10
133.710000000000008
20
-93.6599999999999966
11
139.7099999999999795
21
-93.6599999999999966
0
LINE
8
BLACK
6
CONTINUOUS
10
139.7099999999999795
20
-93.6599999999999966
11
139.7291339999999877
21
-93.6638059999999939
0
LINE
8
BLACK
6
CONTINUOUS
10
133.7599999999999909
20
-93.7599999999999909
11
133.7599999999999909
21
-97.3599999999999994
0
LINE
8
BLACK
6
CONTINUOUS
10
133.7599999999999909
20
-97.3599999999999994
11
139.6599999999999966
21
-97.3599999999999994
0
LINE
8
BLACK
6
CONTINUOUS
10
139.6599999999999966
20
-97.3599999999999994
11
139.6599999999999966
21
-93.7599999999999909
0
LINE
8
BLACK
6
CONTINUOUS
10
139.6599999999999966
20
-93.7599999999999909
11
133.7599999999999909
21
-93.7599999999999909
0
LINE
8
BLACK
6
CONTINUOUS
10
159.7291339999999877
20
-93.6638059999999939
11
159.7561939999999936
21
-93.6908659999999998
0
LINE
8
BLACK
6
CONTINUOUS
10
159.7561939999999936
20
-93.6908659999999998
11
159.7599999999999909
21
-93.7099999999999937
0
LINE
8
BLACK
6
CONTINUOUS
10
159.7599999999999909
20
-93.7099999999999937
11
159.7599999999999909
21
-97.4099999999999966
0
LINE
8
BLACK
6
CONTINUOUS
10
159.7599999999999909
20
-97.4099999999999966
11
159.7561939999999936
21
-97.4291339999999906
0
LINE
8
BLACK
6
CONTINUOUS
10
159.7561939999999936
20
-97.4291339999999906
11
159.7291339999999877
21
-97.4561939999999964
0
LINE
8
BLACK
6
CONTINUOUS
10
159.7291339999999877
20
-97.4561939999999964
11
159.7099999999999795
21
-97.4599999999999937
0
LINE
8
BLACK
6
CONTINUOUS
10
159.7099999999999795
20
-97.4599999999999937
11
153.7099999999999795
21
-97.4599999999999937
0
LINE
8
BLACK
6
CONTINUOUS
10
153.7099999999999795
20
-97.4599999999999937
11
153.6908659999999998
21
-97.4561939999999964
0
LINE
8
BLACK
6
CONTINUOUS
10
153.6908659999999998
20
-97.4561939999999964
11
153.6638059999999939
21
-97.4291339999999906
0
LINE
8
BLACK
6
CONTINUOUS
10
153.6638059999999939
20
-97.4291339999999906
11
153.6599999999999966
21
-97.4099999999999966
0
LINE
8
BLACK
6
CONTINUOUS
10
153.6599999999999966
20
-97.4099999999999966
11
153.6599999999999966
21
-93.7099999999999937
0
LINE
8
BLACK
6
CONTINUOUS
10
153.6599999999999966
20
-93.7099999999999937
11
153.6638059999999939
21
-93.6908659999999998
0
LINE
8
BLACK
6
CONTINUOUS
10
153.6638059999999939
20
-93.6908659999999998
11
153.6908659999999998
21
-93.6638059999999939
0
LINE
8
BLACK
6
CONTINUOUS
10
153.6908659999999998
20
-93.6638059999999939
11
153.7099999999999795
21
-93.6599999999999966
0
LINE
8
BLACK
6
CONTINUOUS
10
153.7099999999999795
20
-93.6599999999999966
11
159.7099999999999795
21
-93.6599999999999966
0
LINE
8
BLACK
6
CONTINUOUS
10
159.7099999999999795
20
-93.6599999999999966
11
159.7291339999999877
21
-93.6638059999999939
0
LINE
8
BLACK
6
CONTINUOUS
10
153.7599999999999909
20
-93.7599999999999909
11
153.7599999999999909
21
-97.3599999999999994
0
LINE
8
BLACK
6
CONTINUOUS
10
153.7599999999999909
20
-97.3599999999999994
11
159.6599999999999966
21
-97.3599999999999994
0
LINE
8
BLACK
6
CONTINUOUS
10
159.6599999999999966
20
-97.3599999999999994
11
159.6599999999999966
21
-93.7599999999999909
0
LINE
8
BLACK
6
CONTINUOUS
10
159.6599999999999966
20
-93.7599999999999909
11
153.7599999999999909
21
-93.7599999999999909
0
LINE
8
BLACK
6
CONTINUOUS
10
149.7291339999999877
20
-93.6638059999999939
11
149.7561939999999936
21
-93.6908659999999998
0
LINE
8
BLACK
6
CONTINUOUS
10
149.7561939999999936
20
-93.6908659999999998
11
149.7599999999999909
21
-93.7099999999999937
0
LINE
8
BLACK
6
CONTINUOUS
10
149.7599999999999909
20
-93.7099999999999937
11
149.7599999999999909
21
-97.3999999999999915
0
LINE
8
BLACK
6
CONTINUOUS
10
149.7599999999999909
20
-97.3999999999999915
11
149.7561939999999936
21
-97.4191339999999997
0
LINE
8
BLACK
6
CONTINUOUS
10
149.7561939999999936
20
-97.4191339999999997
11
149.7291339999999877
21
-97.4461939999999913
0
LINE
8
BLACK
6
CONTINUOUS
10
149.7291339999999877
20
-97.4461939999999913
11
149.7099999999999795
21
-97.4499999999999886
0
LINE
8
BLACK
6
CONTINUOUS
10
149.7099999999999795
20
-97.4499999999999886
11
143.7099999999999795
21
-97.4499999999999886
0
LINE
8
BLACK
6
CONTINUOUS
10
143.7099999999999795
20
-97.4499999999999886
11
143.6908659999999998
21
-97.4461939999999913
0
LINE
8
BLACK
6
CONTINUOUS
10
143.6908659999999998
20
-97.4461939999999913
11
143.6638059999999939
21
-97.4191339999999997
0
LINE
8
BLACK
6
CONTINUOUS
10
143.6638059999999939
20
-97.4191339999999997
11
143.6599999999999966
21
-97.3999999999999915
0
LINE
8
BLACK
6
CONTINUOUS
10
143.6599999999999966
20
-97.3999999999999915
11
143.6599999999999966
21
-93.7099999999999937
0
LINE
8
BLACK
6
CONTINUOUS
10
143.6599999999999966
20
-93.7099999999999937
11
143.6638059999999939
21
-93.6908659999999998
0
LINE
8
BLACK
6
CONTINUOUS
10
143.6638059999999939
20
-93.6908659999999998
11
143.6908659999999998
21
-93.6638059999999939
0
LINE
8
BLACK
6
CONTINUOUS
10
143.6908659999999998
20
-93.6638059999999939
11
143.7099999999999795
21
-93.6599999999999966
0
LINE
8
BLACK
6
CONTINUOUS
10
143.7099999999999795
20
-93.6599999999999966
11
149.7099999999999795
21
-93.6599999999999966
0
LINE
8
BLACK
6
CONTINUOUS
10
149.7099999999999795
20
-93.6599999999999966
11
149.7291339999999877
21
-93.6638059999999939
0
LINE
8
BLACK
6
CONTINUOUS
10
143.7599999999999909
20
-93.7599999999999909
11
143.7599999999999909
21
-97.3499999999999943
0
LINE
8
BLACK
6
CONTINUOUS
10
143.7599999999999909
20
-97.3499999999999943
11
149.6599999999999966
21
-97.3499999999999943
0
LINE
8
BLACK
6
CONTINUOUS
10
149.6599999999999966
20
-97.3499999999999943
11
149.6599999999999966
21
-93.7599999999999909
0
LINE
8
BLACK
6
CONTINUOUS
10
149.6599999999999966
20
-93.7599999999999909
11
143.7599999999999909
21
-93.7599999999999909
  0
ENDSEC
  0
EOF
