  0
SECTION
  2
HEADER
  9
$ANGBASE
  50
0.0
  9
$ANGDIR
  70
1
  9
$MEASUREMENT
  70
1
  0
ENDSEC
  0
SECTION
  2
TABLES
  0
TABLE
  2
LTYPE
  70
4
  0
LTYPE
  5
40F
  2
CONTINUOUS
  70
0
  3
Solid line
  72
65
  73
0
  40
0.0
  0
LTYPE
  5
410
  2
DASHDOT
 70
0
  3
Dash Dot ____ _ ____ _
 72
65
 73
4
 40
2.0
 49
1.25
 49
-0.25
 49
0.25
 49
-0.25
  0
LTYPE
  5
411
  2
DASHED
 70
0
  3
Dashed __ __ __ __ __
 72
65
 73
2
 40
0.75
 49
0.5
 49
-0.25
  0
LTYPE
  5
43B
  2
DOTTED
 70
0
  3
Dotted .  .  .  .
 72
65
 73
2
 40
0.2
 49
0.0
 49
-0.2
  0
ENDTAB
  0
TABLE
  2
STYLE
  70
4
  0
STYLE
  2
KICAD
  70
0
  40
0
  41
1
  42
1
  50
0
  71
0
  3
isocp.shx
  0
STYLE
  2
KICADB
  70
0
  40
0
  41
1
  42
1
  50
0
  71
0
  3
isocp.shx
  0
STYLE
  2
KICADI
  70
0
  40
0
  41
1
  42
1
  50
15
  71
0
  3
isocp.shx
  0
STYLE
  2
KICADBI
  70
0
  40
0
  41
1
  42
1
  50
15
  71
0
  3
isocp.shx
  0
ENDTAB
  0
TABLE
  2
LAYER
  70
1
  0
LAYER
  2
BLACK
  70
0
  62
7
  6
CONTINUOUS
  0
ENDTAB
  0
ENDSEC
  0
SECTION
  2
ENTITIES
0
LINE
8
BLACK
6
CONTINUOUS
10
131.7600669999999923
20
-86.4374029999999891
11
131.7735969999999952
21
-86.450932999999992
0
LINE
8
BLACK
6
CONTINUOUS
10
131.7735969999999952
20
-86.450932999999992
11
131.7754999999999939
21
-86.4604999999999961
0
LINE
8
BLACK
6
CONTINUOUS
10
131.7754999999999939
20
-86.4604999999999961
11
131.7754999999999939
21
-127.9904999999999973
0
LINE
8
BLACK
6
CONTINUOUS
10
131.7754999999999939
20
-127.9904999999999973
11
131.7735969999999952
21
-128.0000670000000014
0
LINE
8
BLACK
6
CONTINUOUS
10
131.7735969999999952
20
-128.0000670000000014
11
131.7600669999999923
21
-128.0135970000000043
0
LINE
8
BLACK
6
CONTINUOUS
10
131.7600669999999923
20
-128.0135970000000043
11
131.7504999999999882
21
-128.015500000000003
0
LINE
8
BLACK
6
CONTINUOUS
10
131.7504999999999882
20
-128.015500000000003
11
71.6004999999999967
21
-128.015500000000003
0
LINE
8
BLACK
6
CONTINUOUS
10
71.6004999999999967
20
-128.015500000000003
11
71.5909329999999926
21
-128.0135970000000043
0
LINE
8
BLACK
6
CONTINUOUS
10
71.5909329999999926
20
-128.0135970000000043
11
71.5774029999999897
21
-128.0000670000000014
0
LINE
8
BLACK
6
CONTINUOUS
10
71.5774029999999897
20
-128.0000670000000014
11
71.575499999999991
21
-127.9904999999999973
0
LINE
8
BLACK
6
CONTINUOUS
10
71.575499999999991
20
-127.9904999999999973
11
71.575499999999991
21
-86.4604999999999961
0
LINE
8
BLACK
6
CONTINUOUS
10
71.575499999999991
20
-86.4604999999999961
11
71.5774029999999897
21
-86.450932999999992
0
LINE
8
BLACK
6
CONTINUOUS
10
71.5774029999999897
20
-86.450932999999992
11
71.5909329999999926
21
-86.4374029999999891
0
LINE
8
BLACK
6
CONTINUOUS
10
71.5909329999999926
20
-86.4374029999999891
11
71.6004999999999967
21
-86.4354999999999905
0
LINE
8
BLACK
6
CONTINUOUS
10
71.6004999999999967
20
-86.4354999999999905
11
131.7504999999999882
21
-86.4354999999999905
0
LINE
8
BLACK
6
CONTINUOUS
10
131.7504999999999882
20
-86.4354999999999905
11
131.7600669999999923
21
-86.4374029999999891
0
LINE
8
BLACK
6
CONTINUOUS
10
71.6255000000000024
20
-86.4855000000000018
11
71.6255000000000024
21
-127.9654999999999916
0
LINE
8
BLACK
6
CONTINUOUS
10
71.6255000000000024
20
-127.9654999999999916
11
131.7254999999999825
21
-127.9654999999999916
0
LINE
8
BLACK
6
CONTINUOUS
10
131.7254999999999825
20
-127.9654999999999916
11
131.7254999999999825
21
-86.4855000000000018
0
LINE
8
BLACK
6
CONTINUOUS
10
131.7254999999999825
20
-86.4855000000000018
11
71.6255000000000024
21
-86.4855000000000018
0
LINE
8
BLACK
6
CONTINUOUS
10
159.6899999999999977
20
-79.7249999999999943
11
159.9543160000000057
21
-79.7423239999999964
0
LINE
8
BLACK
6
CONTINUOUS
10
159.9543160000000057
20
-79.7423239999999964
11
160.2141089999999792
21
-79.7939999999999969
0
LINE
8
BLACK
6
CONTINUOUS
10
160.2141089999999792
20
-79.7939999999999969
11
160.4649339999999995
21
-79.8791439999999966
0
LINE
8
BLACK
6
CONTINUOUS
10
160.4649339999999995
20
-79.8791439999999966
11
160.7024999999999864
21
-79.9962989999999934
0
LINE
8
BLACK
6
CONTINUOUS
10
160.7024999999999864
20
-79.9962989999999934
11
160.9227419999999995
21
-80.1434589999999929
0
LINE
8
BLACK
6
CONTINUOUS
10
160.9227419999999995
20
-80.1434589999999929
11
161.1218910000000051
21
-80.3181089999999926
0
LINE
8
BLACK
6
CONTINUOUS
10
161.1218910000000051
20
-80.3181089999999926
11
161.2965409999999906
21
-80.5172579999999982
0
LINE
8
BLACK
6
CONTINUOUS
10
161.2965409999999906
20
-80.5172579999999982
11
161.4437010000000043
21
-80.7374999999999972
0
LINE
8
BLACK
6
CONTINUOUS
10
161.4437010000000043
20
-80.7374999999999972
11
161.5608560000000011
21
-80.9750659999999982
0
LINE
8
BLACK
6
CONTINUOUS
10
161.5608560000000011
20
-80.9750659999999982
11
161.6459999999999866
21
-81.2258909999999901
0
LINE
8
BLACK
6
CONTINUOUS
10
161.6459999999999866
20
-81.2258909999999901
11
161.6976760000000013
21
-81.485683999999992
0
LINE
8
BLACK
6
CONTINUOUS
10
161.6976760000000013
20
-81.485683999999992
11
161.7150000000000034
21
-81.75
0
LINE
8
BLACK
6
CONTINUOUS
10
161.7150000000000034
20
-81.75
11
161.7150000000000034
21
-132.75
0
LINE
8
BLACK
6
CONTINUOUS
10
161.7150000000000034
20
-132.75
11
161.6976760000000013
21
-133.014316000000008
0
LINE
8
BLACK
6
CONTINUOUS
10
161.6976760000000013
20
-133.014316000000008
11
161.6459999999999866
21
-133.2741089999999815
0
LINE
8
BLACK
6
CONTINUOUS
10
161.6459999999999866
20
-133.2741089999999815
11
161.5608560000000011
21
-133.5249340000000018
0
LINE
8
BLACK
6
CONTINUOUS
10
161.5608560000000011
20
-133.5249340000000018
11
161.4437010000000043
21
-133.7624999999999886
0
LINE
8
BLACK
6
CONTINUOUS
10
161.4437010000000043
20
-133.7624999999999886
11
161.2965409999999906
21
-133.9827420000000018
0
LINE
8
BLACK
6
CONTINUOUS
10
161.2965409999999906
20
-133.9827420000000018
11
161.1218910000000051
21
-134.1818910000000074
0
LINE
8
BLACK
6
CONTINUOUS
10
161.1218910000000051
20
-134.1818910000000074
11
160.9227419999999995
21
-134.3565409999999929
0
LINE
8
BLACK
6
CONTINUOUS
10
160.9227419999999995
20
-134.3565409999999929
11
160.7024999999999864
21
-134.5037010000000066
0
LINE
8
BLACK
6
CONTINUOUS
10
160.7024999999999864
20
-134.5037010000000066
11
160.4649339999999995
21
-134.6208560000000034
0
LINE
8
BLACK
6
CONTINUOUS
10
160.4649339999999995
20
-134.6208560000000034
11
160.2141089999999792
21
-134.7059999999999889
0
LINE
8
BLACK
6
CONTINUOUS
10
160.2141089999999792
20
-134.7059999999999889
11
159.9543160000000057
21
-134.7576760000000036
0
LINE
8
BLACK
6
CONTINUOUS
10
159.9543160000000057
20
-134.7576760000000036
11
159.6899999999999977
21
-134.7750000000000057
0
LINE
8
BLACK
6
CONTINUOUS
10
159.6899999999999977
20
-134.7750000000000057
11
43.6899999999999977
21
-134.7750000000000057
0
LINE
8
BLACK
6
CONTINUOUS
10
43.6899999999999977
20
-134.7750000000000057
11
43.4256839999999968
21
-134.7576760000000036
0
LINE
8
BLACK
6
CONTINUOUS
10
43.4256839999999968
20
-134.7576760000000036
11
43.1658909999999949
21
-134.7059999999999889
0
LINE
8
BLACK
6
CONTINUOUS
10
43.1658909999999949
20
-134.7059999999999889
11
42.9150659999999959
21
-134.6208560000000034
0
LINE
8
BLACK
6
CONTINUOUS
10
42.9150659999999959
20
-134.6208560000000034
11
42.6774999999999949
21
-134.5037010000000066
0
LINE
8
BLACK
6
CONTINUOUS
10
42.6774999999999949
20
-134.5037010000000066
11
42.4572579999999959
21
-134.3565409999999929
0
LINE
8
BLACK
6
CONTINUOUS
10
42.4572579999999959
20
-134.3565409999999929
11
42.2581089999999975
21
-134.1818910000000074
0
LINE
8
BLACK
6
CONTINUOUS
10
42.2581089999999975
20
-134.1818910000000074
11
42.0834589999999977
21
-133.9827420000000018
0
LINE
8
BLACK
6
CONTINUOUS
10
42.0834589999999977
20
-133.9827420000000018
11
41.9362989999999982
21
-133.7624999999999886
0
LINE
8
BLACK
6
CONTINUOUS
10
41.9362989999999982
20
-133.7624999999999886
11
41.8191440000000014
21
-133.5249340000000018
0
LINE
8
BLACK
6
CONTINUOUS
10
41.8191440000000014
20
-133.5249340000000018
11
41.7339999999999947
21
-133.2741089999999815
0
LINE
8
BLACK
6
CONTINUOUS
10
41.7339999999999947
20
-133.2741089999999815
11
41.6823240000000013
21
-133.014316000000008
0
LINE
8
BLACK
6
CONTINUOUS
10
41.6823240000000013
20
-133.014316000000008
11
41.6649999999999991
21
-132.75
0
LINE
8
BLACK
6
CONTINUOUS
10
41.6649999999999991
20
-132.75
11
41.6649999999999991
21
-81.75
0
LINE
8
BLACK
6
CONTINUOUS
10
41.6649999999999991
20
-81.75
11
41.6823240000000013
21
-81.485683999999992
0
LINE
8
BLACK
6
CONTINUOUS
10
41.6823240000000013
20
-81.485683999999992
11
41.7339999999999947
21
-81.2258909999999901
0
LINE
8
BLACK
6
CONTINUOUS
10
41.7339999999999947
20
-81.2258909999999901
11
41.8191440000000014
21
-80.9750659999999982
0
LINE
8
BLACK
6
CONTINUOUS
10
41.8191440000000014
20
-80.9750659999999982
11
41.9362989999999982
21
-80.7374999999999972
0
LINE
8
BLACK
6
CONTINUOUS
10
41.9362989999999982
20
-80.7374999999999972
11
42.0834589999999977
21
-80.5172579999999982
0
LINE
8
BLACK
6
CONTINUOUS
10
42.0834589999999977
20
-80.5172579999999982
11
42.2581089999999975
21
-80.3181089999999926
0
LINE
8
BLACK
6
CONTINUOUS
10
42.2581089999999975
20
-80.3181089999999926
11
42.4572579999999959
21
-80.1434589999999929
0
LINE
8
BLACK
6
CONTINUOUS
10
42.4572579999999959
20
-80.1434589999999929
11
42.6774999999999949
21
-79.9962989999999934
0
LINE
8
BLACK
6
CONTINUOUS
10
42.6774999999999949
20
-79.9962989999999934
11
42.9150659999999959
21
-79.8791439999999966
0
LINE
8
BLACK
6
CONTINUOUS
10
42.9150659999999959
20
-79.8791439999999966
11
43.1658909999999949
21
-79.7939999999999969
0
LINE
8
BLACK
6
CONTINUOUS
10
43.1658909999999949
20
-79.7939999999999969
11
43.4256839999999968
21
-79.7423239999999964
0
LINE
8
BLACK
6
CONTINUOUS
10
43.4256839999999968
20
-79.7423239999999964
11
43.6899999999999977
21
-79.7249999999999943
0
LINE
8
BLACK
6
CONTINUOUS
10
43.6899999999999977
20
-79.7249999999999943
11
159.6899999999999977
21
-79.7249999999999943
0
LINE
8
BLACK
6
CONTINUOUS
10
43.6899999999999977
20
-79.7749999999999915
11
43.5605520000000013
21
-79.7749999999999915
0
LINE
8
BLACK
6
CONTINUOUS
10
43.5605520000000013
20
-79.7749999999999915
11
43.3038699999999963
21
-79.8087929999999943
0
LINE
8
BLACK
6
CONTINUOUS
10
43.3038699999999963
20
-79.8087929999999943
11
43.0537950000000009
21
-79.8757999999999981
0
LINE
8
BLACK
6
CONTINUOUS
10
43.0537950000000009
20
-79.8757999999999981
11
42.8146050000000002
21
-79.9748749999999973
0
LINE
8
BLACK
6
CONTINUOUS
10
42.8146050000000002
20
-79.9748749999999973
11
42.5903939999999963
21
-80.1043239999999912
0
LINE
8
BLACK
6
CONTINUOUS
10
42.5903939999999963
20
-80.1043239999999912
11
42.384997999999996
21
-80.2619299999999924
0
LINE
8
BLACK
6
CONTINUOUS
10
42.384997999999996
20
-80.2619299999999924
11
42.2019299999999973
21
-80.4449979999999982
0
LINE
8
BLACK
6
CONTINUOUS
10
42.2019299999999973
20
-80.4449979999999982
11
42.044323999999996
21
-80.6503939999999915
0
LINE
8
BLACK
6
CONTINUOUS
10
42.044323999999996
20
-80.6503939999999915
11
41.914874999999995
21
-80.8746050000000025
0
LINE
8
BLACK
6
CONTINUOUS
10
41.914874999999995
20
-80.8746050000000025
11
41.8157999999999959
21
-81.1137949999999961
0
LINE
8
BLACK
6
CONTINUOUS
10
41.8157999999999959
20
-81.1137949999999961
11
41.7487929999999992
21
-81.3638699999999915
0
LINE
8
BLACK
6
CONTINUOUS
10
41.7487929999999992
20
-81.3638699999999915
11
41.7149999999999963
21
-81.6205519999999893
0
LINE
8
BLACK
6
CONTINUOUS
10
41.7149999999999963
20
-81.6205519999999893
11
41.7149999999999963
21
-81.75
0
LINE
8
BLACK
6
CONTINUOUS
10
41.7149999999999963
20
-81.75
11
41.7149999999999963
21
-132.75
0
LINE
8
BLACK
6
CONTINUOUS
10
41.7149999999999963
20
-132.75
11
41.7149999999999963
21
-132.8794479999999965
0
LINE
8
BLACK
6
CONTINUOUS
10
41.7149999999999963
20
-132.8794479999999965
11
41.7487929999999992
21
-133.1361299999999801
0
LINE
8
BLACK
6
CONTINUOUS
10
41.7487929999999992
20
-133.1361299999999801
11
41.8157999999999959
21
-133.3862049999999897
0
LINE
8
BLACK
6
CONTINUOUS
10
41.8157999999999959
20
-133.3862049999999897
11
41.914874999999995
21
-133.6253949999999975
0
LINE
8
BLACK
6
CONTINUOUS
10
41.914874999999995
20
-133.6253949999999975
11
42.044323999999996
21
-133.8496059999999943
0
LINE
8
BLACK
6
CONTINUOUS
10
42.044323999999996
20
-133.8496059999999943
11
42.2019299999999973
21
-134.0550020000000018
0
LINE
8
BLACK
6
CONTINUOUS
10
42.2019299999999973
20
-134.0550020000000018
11
42.384997999999996
21
-134.2380699999999933
0
LINE
8
BLACK
6
CONTINUOUS
10
42.384997999999996
20
-134.2380699999999933
11
42.5903939999999963
21
-134.3956759999999804
0
LINE
8
BLACK
6
CONTINUOUS
10
42.5903939999999963
20
-134.3956759999999804
11
42.8146050000000002
21
-134.5251250000000027
0
LINE
8
BLACK
6
CONTINUOUS
10
42.8146050000000002
20
-134.5251250000000027
11
43.0537950000000009
21
-134.6242000000000019
0
LINE
8
BLACK
6
CONTINUOUS
10
43.0537950000000009
20
-134.6242000000000019
11
43.3038699999999963
21
-134.6912069999999915
0
LINE
8
BLACK
6
CONTINUOUS
10
43.3038699999999963
20
-134.6912069999999915
11
43.5605520000000013
21
-134.7249999999999943
0
LINE
8
BLACK
6
CONTINUOUS
10
43.5605520000000013
20
-134.7249999999999943
11
43.6899999999999977
21
-134.7249999999999943
0
LINE
8
BLACK
6
CONTINUOUS
10
43.6899999999999977
20
-134.7249999999999943
11
159.6899999999999977
21
-134.7249999999999943
0
LINE
8
BLACK
6
CONTINUOUS
10
159.6899999999999977
20
-134.7249999999999943
11
159.8194479999999942
21
-134.7249999999999943
0
LINE
8
BLACK
6
CONTINUOUS
10
159.8194479999999942
20
-134.7249999999999943
11
160.0761300000000062
21
-134.6912069999999915
0
LINE
8
BLACK
6
CONTINUOUS
10
160.0761300000000062
20
-134.6912069999999915
11
160.3262049999999874
21
-134.6242000000000019
0
LINE
8
BLACK
6
CONTINUOUS
10
160.3262049999999874
20
-134.6242000000000019
11
160.5653949999999952
21
-134.5251250000000027
0
LINE
8
BLACK
6
CONTINUOUS
10
160.5653949999999952
20
-134.5251250000000027
11
160.789605999999992
21
-134.3956759999999804
0
LINE
8
BLACK
6
CONTINUOUS
10
160.789605999999992
20
-134.3956759999999804
11
160.9950019999999995
21
-134.2380699999999933
0
LINE
8
BLACK
6
CONTINUOUS
10
160.9950019999999995
20
-134.2380699999999933
11
161.1780699999999911
21
-134.0550020000000018
0
LINE
8
BLACK
6
CONTINUOUS
10
161.1780699999999911
20
-134.0550020000000018
11
161.3356760000000065
21
-133.8496059999999943
0
LINE
8
BLACK
6
CONTINUOUS
10
161.3356760000000065
20
-133.8496059999999943
11
161.4651250000000005
21
-133.6253949999999975
0
LINE
8
BLACK
6
CONTINUOUS
10
161.4651250000000005
20
-133.6253949999999975
11
161.5641999999999996
21
-133.3862049999999897
0
LINE
8
BLACK
6
CONTINUOUS
10
161.5641999999999996
20
-133.3862049999999897
11
161.6312069999999892
21
-133.1361299999999801
0
LINE
8
BLACK
6
CONTINUOUS
10
161.6312069999999892
20
-133.1361299999999801
11
161.664999999999992
21
-132.8794479999999965
0
LINE
8
BLACK
6
CONTINUOUS
10
161.664999999999992
20
-132.8794479999999965
11
161.664999999999992
21
-132.75
0
LINE
8
BLACK
6
CONTINUOUS
10
161.664999999999992
20
-132.75
11
161.664999999999992
21
-81.75
0
LINE
8
BLACK
6
CONTINUOUS
10
161.664999999999992
20
-81.75
11
161.664999999999992
21
-81.6205519999999893
0
LINE
8
BLACK
6
CONTINUOUS
10
161.664999999999992
20
-81.6205519999999893
11
161.6312069999999892
21
-81.3638699999999915
0
LINE
8
BLACK
6
CONTINUOUS
10
161.6312069999999892
20
-81.3638699999999915
11
161.5641999999999996
21
-81.1137949999999961
0
LINE
8
BLACK
6
CONTINUOUS
10
161.5641999999999996
20
-81.1137949999999961
11
161.4651250000000005
21
-80.8746050000000025
0
LINE
8
BLACK
6
CONTINUOUS
10
161.4651250000000005
20
-80.8746050000000025
11
161.3356760000000065
21
-80.6503939999999915
0
LINE
8
BLACK
6
CONTINUOUS
10
161.3356760000000065
20
-80.6503939999999915
11
161.1780699999999911
21
-80.4449979999999982
0
LINE
8
BLACK
6
CONTINUOUS
10
161.1780699999999911
20
-80.4449979999999982
11
160.9950019999999995
21
-80.2619299999999924
0
LINE
8
BLACK
6
CONTINUOUS
10
160.9950019999999995
20
-80.2619299999999924
11
160.789605999999992
21
-80.1043239999999912
0
LINE
8
BLACK
6
CONTINUOUS
10
160.789605999999992
20
-80.1043239999999912
11
160.5653949999999952
21
-79.9748749999999973
0
LINE
8
BLACK
6
CONTINUOUS
10
160.5653949999999952
20
-79.9748749999999973
11
160.3262049999999874
21
-79.8757999999999981
0
LINE
8
BLACK
6
CONTINUOUS
10
160.3262049999999874
20
-79.8757999999999981
11
160.0761300000000062
21
-79.8087929999999943
0
LINE
8
BLACK
6
CONTINUOUS
10
160.0761300000000062
20
-79.8087929999999943
11
159.8194479999999942
21
-79.7749999999999915
0
LINE
8
BLACK
6
CONTINUOUS
10
159.8194479999999942
20
-79.7749999999999915
11
159.6899999999999977
21
-79.7749999999999915
0
LINE
8
BLACK
6
CONTINUOUS
10
159.6899999999999977
20
-79.7749999999999915
11
43.6899999999999977
21
-79.7749999999999915
  0
ENDSEC
  0
EOF
