M48
; DRILL file {KiCad 9.0.3} date 2026-09-06T12:01:23+1000
; FORMAT={-:-/ absolute / metric / decimal}
; #@! TF.CreationDate,2026-09-06T12:01:23+10:00
; #@! TF.GenerationSoftware,Kicad,Pcbnew,9.0.3
; #@! TF.FileFunction,Plated,1,2,PTH
FMAT,2
METRIC
; #@! TA.AperFunction,Plated,PTH,ViaDrill
T1C0.300
; #@! TA.AperFunction,Plated,PTH,ComponentDrill
T2C0.800
; #@! TA.AperFunction,Plated,PTH,ComponentDrill
T3C1.000
%
G90
G05
T1
X137.36Y-139.34
X137.39Y-136.13
T2
X46.31Y-124.86
X51.31Y-124.86
X53.81Y-117.43
X53.81Y-132.43
X58.81Y-117.43
X58.81Y-132.43
X61.31Y-124.86
X66.31Y-124.86
X145.16Y-124.86
X150.16Y-124.86
T3
X92.48Y-90.609
X95.019Y-90.609
X97.559Y-90.609
X100.099Y-90.609
X102.639Y-90.609
X105.179Y-90.609
X107.719Y-90.609
X110.259Y-90.609
X112.799Y-90.609
M30
